# xmcd
#
# Track frame offsets: 
#        150
#        17040
#        31311
#        44884
#        60146
#        77127
#        89223
#        102730
#        118246
#        133711
#        147247
#
# Disc length: 2162 seconds
#
# Revision: 0
# Processed by: cddbd v1.5.2PL0 Copyright (c) Steve Scherf et al.
# Submitted via: ExactAudioCopy v1.0b1
#
DISCID=a108700b
DTITLE=Trent Jeffcoat - Save Country Music
DYEAR=2005
DGENRE=Country
TTITLE0=The Only Thing That Changed
TTITLE1=Shooey
TTITLE2=I Love This Trailer Park
TTITLE3=One More Time
TTITLE4=Save Country Music
TTITLE5=I Could Kill Him
TTITLE6=When Days Lasted Years
TTITLE7=Livin' On Southern Time
TTITLE8=Livin' Without Lovin'
TTITLE9=The Sky Above The Ground Below
TTITLE10=When I Drink
EXTD=
EXTT0=
EXTT1=
EXTT2=
EXTT3=
EXTT4=
EXTT5=
EXTT6=
EXTT7=
EXTT8=
EXTT9=
EXTT10=
PLAYORDER=
